<?xml version="1.0" encoding="utf-8" standalone="no"?>
<!DOCTYPE svg PUBLIC "-//W3C//DTD SVG 1.1//EN"
  "http://www.w3.org/Graphics/SVG/1.1/DTD/svg11.dtd">
<svg xmlns:xlink="http://www.w3.org/1999/xlink" width="427.104pt" height="127.728pt" viewBox="0 0 427.104 127.728" xmlns="http://www.w3.org/2000/svg" version="1.1">
 <metadata>
  <rdf:RDF xmlns:dc="http://purl.org/dc/elements/1.1/" xmlns:cc="http://creativecommons.org/ns#" xmlns:rdf="http://www.w3.org/1999/02/22-rdf-syntax-ns#">
   <cc:Work>
    <dc:type rdf:resource="http://purl.org/dc/dcmitype/StillImage"/>
    <dc:date>2026-06-30T00:00:57.314081</dc:date>
    <dc:format>image/svg+xml</dc:format>
    <dc:creator>
     <cc:Agent>
      <dc:title>Matplotlib v3.11.0, https://matplotlib.org/</dc:title>
     </cc:Agent>
    </dc:creator>
   </cc:Work>
  </rdf:RDF>
 </metadata>
 <defs>
  <style type="text/css">*{stroke-linejoin: round; stroke-linecap: butt}</style>
 </defs>
 <g id="figure_1">
  <g id="patch_1">
   <path d="M 0 127.728 
L 427.104 127.728 
L 427.104 0 
L 0 0 
L 0 127.728 
z
" style="fill: none"/>
  </g>
  <g id="axes_1">
   <g id="patch_2">
    <path d="M 63.864 110.988 
C 76.361431 110.988 88.348682 106.022718 97.1857 97.1857 
C 106.022718 88.348682 110.988 76.361431 110.988 63.864 
C 110.988 51.366569 106.022718 39.379318 97.1857 30.5423 
C 88.348682 21.705282 76.361431 16.74 63.864 16.74 
C 51.366569 16.74 39.379318 21.705282 30.5423 30.5423 
C 21.705282 39.379318 16.74 51.366569 16.74 63.864 
C 16.74 76.361431 21.705282 88.348682 30.5423 97.1857 
C 39.379318 106.022718 51.366569 110.988 63.864 110.988 
L 63.864 110.988 
z
" clip-path="url(#p8ea9fa52c6)" style="fill: none; opacity: 0.16; stroke: #4f46e5; stroke-width: 3.74; stroke-linejoin: miter"/>
   </g>
   <g id="text_1">
    <!-- Foveance -->
    <g style="fill: #0f172a" transform="translate(127.62 64.725219) scale(0.46 -0.46)">
     <defs>
      <path id="DejaVuSans-Bold-29" d="M 588 4666 
L 3834 4666 
L 3834 3756 
L 1791 3756 
L 1791 2888 
L 3713 2888 
L 3713 1978 
L 1791 1978 
L 1791 0 
L 588 0 
L 588 4666 
z
" transform="scale(0.015625)"/>
      <path id="DejaVuSans-Bold-52" d="M 2203 2784 
Q 1831 2784 1636 2517 
Q 1441 2250 1441 1747 
Q 1441 1244 1636 976 
Q 1831 709 2203 709 
Q 2569 709 2762 976 
Q 2956 1244 2956 1747 
Q 2956 2250 2762 2517 
Q 2569 2784 2203 2784 
z
M 2203 3584 
Q 3106 3584 3614 3096 
Q 4122 2609 4122 1747 
Q 4122 884 3614 396 
Q 3106 -91 2203 -91 
Q 1297 -91 786 396 
Q 275 884 275 1747 
Q 275 2609 786 3096 
Q 1297 3584 2203 3584 
z
" transform="scale(0.015625)"/>
      <path id="DejaVuSans-Bold-59" d="M 97 3500 
L 1216 3500 
L 2088 1081 
L 2956 3500 
L 4078 3500 
L 2700 0 
L 1472 0 
L 97 3500 
z
" transform="scale(0.015625)"/>
      <path id="DejaVuSans-Bold-48" d="M 4031 1759 
L 4031 1441 
L 1416 1441 
Q 1456 1047 1700 850 
Q 1944 653 2381 653 
Q 2734 653 3104 758 
Q 3475 863 3866 1075 
L 3866 213 
Q 3469 63 3072 -14 
Q 2675 -91 2278 -91 
Q 1328 -91 801 392 
Q 275 875 275 1747 
Q 275 2603 792 3093 
Q 1309 3584 2216 3584 
Q 3041 3584 3536 3087 
Q 4031 2591 4031 1759 
z
M 2881 2131 
Q 2881 2450 2695 2645 
Q 2509 2841 2209 2841 
Q 1884 2841 1681 2658 
Q 1478 2475 1428 2131 
L 2881 2131 
z
" transform="scale(0.015625)"/>
      <path id="DejaVuSans-Bold-44" d="M 2106 1575 
Q 1756 1575 1579 1456 
Q 1403 1338 1403 1106 
Q 1403 894 1545 773 
Q 1688 653 1941 653 
Q 2256 653 2472 879 
Q 2688 1106 2688 1447 
L 2688 1575 
L 2106 1575 
z
M 3816 1997 
L 3816 0 
L 2688 0 
L 2688 519 
Q 2463 200 2181 54 
Q 1900 -91 1497 -91 
Q 953 -91 614 226 
Q 275 544 275 1050 
Q 275 1666 698 1953 
Q 1122 2241 2028 2241 
L 2688 2241 
L 2688 2328 
Q 2688 2594 2478 2717 
Q 2269 2841 1825 2841 
Q 1466 2841 1156 2769 
Q 847 2697 581 2553 
L 581 3406 
Q 941 3494 1303 3539 
Q 1666 3584 2028 3584 
Q 2975 3584 3395 3211 
Q 3816 2838 3816 1997 
z
" transform="scale(0.015625)"/>
      <path id="DejaVuSans-Bold-51" d="M 4056 2131 
L 4056 0 
L 2931 0 
L 2931 347 
L 2931 1631 
Q 2931 2084 2911 2256 
Q 2891 2428 2841 2509 
Q 2775 2619 2662 2680 
Q 2550 2741 2406 2741 
Q 2056 2741 1856 2470 
Q 1656 2200 1656 1722 
L 1656 0 
L 538 0 
L 538 3500 
L 1656 3500 
L 1656 2988 
Q 1909 3294 2193 3439 
Q 2478 3584 2822 3584 
Q 3428 3584 3742 3212 
Q 4056 2841 4056 2131 
z
" transform="scale(0.015625)"/>
      <path id="DejaVuSans-Bold-46" d="M 3366 3391 
L 3366 2478 
Q 3138 2634 2908 2709 
Q 2678 2784 2431 2784 
Q 1963 2784 1702 2511 
Q 1441 2238 1441 1747 
Q 1441 1256 1702 982 
Q 1963 709 2431 709 
Q 2694 709 2930 787 
Q 3166 866 3366 1019 
L 3366 103 
Q 3103 6 2833 -42 
Q 2563 -91 2291 -91 
Q 1344 -91 809 395 
Q 275 881 275 1747 
Q 275 2613 809 3098 
Q 1344 3584 2291 3584 
Q 2566 3584 2833 3536 
Q 3100 3488 3366 3391 
z
" transform="scale(0.015625)"/>
     </defs>
     <use xlink:href="#DejaVuSans-Bold-29"/>
     <use xlink:href="#DejaVuSans-Bold-52" transform="translate(64.265625 0)"/>
     <use xlink:href="#DejaVuSans-Bold-59" transform="translate(132.96875 0)"/>
     <use xlink:href="#DejaVuSans-Bold-48" transform="translate(198.15625 0)"/>
     <use xlink:href="#DejaVuSans-Bold-44" transform="translate(265.984375 0)"/>
     <use xlink:href="#DejaVuSans-Bold-51" transform="translate(333.46875 0)"/>
     <use xlink:href="#DejaVuSans-Bold-46" transform="translate(404.65625 0)"/>
     <use xlink:href="#DejaVuSans-Bold-48" transform="translate(463.9375 0)"/>
    </g>
   </g>
   <g id="text_2">
    <!-- ANTICIPATORY  CONTEXT  ALLOCATION -->
    <g style="fill: #64748b" transform="translate(130.392 93.982036) scale(0.135 -0.135)">
     <defs>
      <path id="DejaVuSans-24" d="M 2188 4044 
L 1331 1722 
L 3047 1722 
L 2188 4044 
z
M 1831 4666 
L 2547 4666 
L 4325 0 
L 3669 0 
L 3244 1197 
L 1141 1197 
L 716 0 
L 50 0 
L 1831 4666 
z
" transform="scale(0.015625)"/>
      <path id="DejaVuSans-31" d="M 628 4666 
L 1478 4666 
L 3547 763 
L 3547 4666 
L 4159 4666 
L 4159 0 
L 3309 0 
L 1241 3903 
L 1241 0 
L 628 0 
L 628 4666 
z
" transform="scale(0.015625)"/>
      <path id="DejaVuSans-37" d="M -19 4666 
L 3928 4666 
L 3928 4134 
L 2272 4134 
L 2272 0 
L 1638 0 
L 1638 4134 
L -19 4134 
L -19 4666 
z
" transform="scale(0.015625)"/>
      <path id="DejaVuSans-2c" d="M 628 4666 
L 1259 4666 
L 1259 0 
L 628 0 
L 628 4666 
z
" transform="scale(0.015625)"/>
      <path id="DejaVuSans-26" d="M 4122 4306 
L 4122 3641 
Q 3803 3938 3442 4084 
Q 3081 4231 2675 4231 
Q 1875 4231 1450 3742 
Q 1025 3253 1025 2328 
Q 1025 1406 1450 917 
Q 1875 428 2675 428 
Q 3081 428 3442 575 
Q 3803 722 4122 1019 
L 4122 359 
Q 3791 134 3420 21 
Q 3050 -91 2638 -91 
Q 1578 -91 968 557 
Q 359 1206 359 2328 
Q 359 3453 968 4101 
Q 1578 4750 2638 4750 
Q 3056 4750 3426 4639 
Q 3797 4528 4122 4306 
z
" transform="scale(0.015625)"/>
      <path id="DejaVuSans-33" d="M 1259 4147 
L 1259 2394 
L 2053 2394 
Q 2494 2394 2734 2622 
Q 2975 2850 2975 3272 
Q 2975 3691 2734 3919 
Q 2494 4147 2053 4147 
L 1259 4147 
z
M 628 4666 
L 2053 4666 
Q 2838 4666 3239 4311 
Q 3641 3956 3641 3272 
Q 3641 2581 3239 2228 
Q 2838 1875 2053 1875 
L 1259 1875 
L 1259 0 
L 628 0 
L 628 4666 
z
" transform="scale(0.015625)"/>
      <path id="DejaVuSans-32" d="M 2522 4238 
Q 1834 4238 1429 3725 
Q 1025 3213 1025 2328 
Q 1025 1447 1429 934 
Q 1834 422 2522 422 
Q 3209 422 3611 934 
Q 4013 1447 4013 2328 
Q 4013 3213 3611 3725 
Q 3209 4238 2522 4238 
z
M 2522 4750 
Q 3503 4750 4090 4092 
Q 4678 3434 4678 2328 
Q 4678 1225 4090 567 
Q 3503 -91 2522 -91 
Q 1538 -91 948 565 
Q 359 1222 359 2328 
Q 359 3434 948 4092 
Q 1538 4750 2522 4750 
z
" transform="scale(0.015625)"/>
      <path id="DejaVuSans-35" d="M 2841 2188 
Q 3044 2119 3236 1894 
Q 3428 1669 3622 1275 
L 4263 0 
L 3584 0 
L 2988 1197 
Q 2756 1666 2539 1819 
Q 2322 1972 1947 1972 
L 1259 1972 
L 1259 0 
L 628 0 
L 628 4666 
L 2053 4666 
Q 2853 4666 3247 4331 
Q 3641 3997 3641 3322 
Q 3641 2881 3436 2590 
Q 3231 2300 2841 2188 
z
M 1259 4147 
L 1259 2491 
L 2053 2491 
Q 2509 2491 2742 2702 
Q 2975 2913 2975 3322 
Q 2975 3731 2742 3939 
Q 2509 4147 2053 4147 
L 1259 4147 
z
" transform="scale(0.015625)"/>
      <path id="DejaVuSans-3c" d="M -13 4666 
L 666 4666 
L 1959 2747 
L 3244 4666 
L 3922 4666 
L 2272 2222 
L 2272 0 
L 1638 0 
L 1638 2222 
L -13 4666 
z
" transform="scale(0.015625)"/>
      <path id="DejaVuSans-3" transform="scale(0.015625)"/>
      <path id="DejaVuSans-28" d="M 628 4666 
L 3578 4666 
L 3578 4134 
L 1259 4134 
L 1259 2753 
L 3481 2753 
L 3481 2222 
L 1259 2222 
L 1259 531 
L 3634 531 
L 3634 0 
L 628 0 
L 628 4666 
z
" transform="scale(0.015625)"/>
      <path id="DejaVuSans-3b" d="M 403 4666 
L 1081 4666 
L 2241 2931 
L 3406 4666 
L 4084 4666 
L 2584 2425 
L 4184 0 
L 3506 0 
L 2194 1984 
L 872 0 
L 191 0 
L 1856 2491 
L 403 4666 
z
" transform="scale(0.015625)"/>
      <path id="DejaVuSans-2f" d="M 628 4666 
L 1259 4666 
L 1259 531 
L 3531 531 
L 3531 0 
L 628 0 
L 628 4666 
z
" transform="scale(0.015625)"/>
     </defs>
     <use xlink:href="#DejaVuSans-24"/>
     <use xlink:href="#DejaVuSans-31" transform="translate(68.40625 0)"/>
     <use xlink:href="#DejaVuSans-37" transform="translate(143.21875 0)"/>
     <use xlink:href="#DejaVuSans-2c" transform="translate(204.296875 0)"/>
     <use xlink:href="#DejaVuSans-26" transform="translate(233.796875 0)"/>
     <use xlink:href="#DejaVuSans-2c" transform="translate(303.625 0)"/>
     <use xlink:href="#DejaVuSans-33" transform="translate(333.125 0)"/>
     <use xlink:href="#DejaVuSans-24" transform="translate(387.03125 0)"/>
     <use xlink:href="#DejaVuSans-37" transform="translate(447.671875 0)"/>
     <use xlink:href="#DejaVuSans-32" transform="translate(508.75 0)"/>
     <use xlink:href="#DejaVuSans-35" transform="translate(587.46875 0)"/>
     <use xlink:href="#DejaVuSans-3c" transform="translate(650.5625 0)"/>
     <use xlink:href="#DejaVuSans-3" transform="translate(711.640625 0)"/>
     <use xlink:href="#DejaVuSans-3" transform="translate(743.421875 0)"/>
     <use xlink:href="#DejaVuSans-26" transform="translate(775.203125 0)"/>
     <use xlink:href="#DejaVuSans-32" transform="translate(845.03125 0)"/>
     <use xlink:href="#DejaVuSans-31" transform="translate(923.75 0)"/>
     <use xlink:href="#DejaVuSans-37" transform="translate(998.5625 0)"/>
     <use xlink:href="#DejaVuSans-28" transform="translate(1059.640625 0)"/>
     <use xlink:href="#DejaVuSans-3b" transform="translate(1122.828125 0)"/>
     <use xlink:href="#DejaVuSans-37" transform="translate(1189.578125 0)"/>
     <use xlink:href="#DejaVuSans-3" transform="translate(1250.65625 0)"/>
     <use xlink:href="#DejaVuSans-3" transform="translate(1282.4375 0)"/>
     <use xlink:href="#DejaVuSans-24" transform="translate(1314.21875 0)"/>
     <use xlink:href="#DejaVuSans-2f" transform="translate(1382.625 0)"/>
     <use xlink:href="#DejaVuSans-2f" transform="translate(1438.34375 0)"/>
     <use xlink:href="#DejaVuSans-32" transform="translate(1490.5 0)"/>
     <use xlink:href="#DejaVuSans-26" transform="translate(1569.21875 0)"/>
     <use xlink:href="#DejaVuSans-24" transform="translate(1639.046875 0)"/>
     <use xlink:href="#DejaVuSans-37" transform="translate(1699.6875 0)"/>
     <use xlink:href="#DejaVuSans-2c" transform="translate(1760.765625 0)"/>
     <use xlink:href="#DejaVuSans-32" transform="translate(1790.265625 0)"/>
     <use xlink:href="#DejaVuSans-31" transform="translate(1868.984375 0)"/>
    </g>
   </g>
   <g id="patch_3">
    <path d="M 72.396632 55.198435 
C 73.546396 55.198435 74.649223 54.741629 75.462229 53.928623 
C 76.275234 53.115618 76.73204 52.012791 76.73204 50.863027 
C 76.73204 49.713263 76.275234 48.610436 75.462229 47.79743 
C 74.649223 46.984425 73.546396 46.527619 72.396632 46.527619 
C 71.246868 46.527619 70.144041 46.984425 69.331036 47.79743 
C 68.51803 48.610436 68.061224 49.713263 68.061224 50.863027 
C 68.061224 52.012791 68.51803 53.115618 69.331036 53.928623 
C 70.144041 54.741629 71.246868 55.198435 72.396632 55.198435 
z
" clip-path="url(#p8ea9fa52c6)" style="fill: #4f46e5; stroke: #4f46e5; stroke-linejoin: miter"/>
   </g>
   <g id="patch_4">
    <path d="M 56.871143 54.309445 
C 58.020907 54.309445 59.123734 53.852639 59.936739 53.039634 
C 60.749745 52.226628 61.206551 51.123801 61.206551 49.974037 
C 61.206551 48.824274 60.749745 47.721447 59.936739 46.908441 
C 59.123734 46.095435 58.020907 45.638629 56.871143 45.638629 
C 55.721379 45.638629 54.618552 46.095435 53.805547 46.908441 
C 52.992541 47.721447 52.535735 48.824274 52.535735 49.974037 
C 52.535735 51.123801 52.992541 52.226628 53.805547 53.039634 
C 54.618552 53.852639 55.721379 54.309445 56.871143 54.309445 
z
" clip-path="url(#p8ea9fa52c6)" style="fill: #4f46e5; stroke: #4f46e5; stroke-linejoin: miter"/>
   </g>
   <g id="patch_5">
    <path d="M 48.338511 67.310418 
C 49.488275 67.310418 50.591102 66.853612 51.404107 66.040607 
C 52.217113 65.227601 52.673919 64.124774 52.673919 62.97501 
C 52.673919 61.825247 52.217113 60.72242 51.404107 59.909414 
C 50.591102 59.096408 49.488275 58.639602 48.338511 58.639602 
C 47.188747 58.639602 46.08592 59.096408 45.272915 59.909414 
C 44.459909 60.72242 44.003103 61.825247 44.003103 62.97501 
C 44.003103 64.124774 44.459909 65.227601 45.272915 66.040607 
C 46.08592 66.853612 47.188747 67.310418 48.338511 67.310418 
z
" clip-path="url(#p8ea9fa52c6)" style="fill: #4f46e5; stroke: #4f46e5; stroke-linejoin: miter"/>
   </g>
   <g id="patch_6">
    <path d="M 55.331368 81.200381 
C 56.481132 81.200381 57.583959 80.743575 58.396964 79.93057 
C 59.20997 79.117564 59.666776 78.014737 59.666776 76.864973 
C 59.666776 75.715209 59.20997 74.612382 58.396964 73.799377 
C 57.583959 72.986371 56.481132 72.529565 55.331368 72.529565 
C 54.181604 72.529565 53.078777 72.986371 52.265771 73.799377 
C 51.452766 74.612382 50.99596 75.715209 50.99596 76.864973 
C 50.99596 78.014737 51.452766 79.117564 52.265771 79.93057 
C 53.078777 80.743575 54.181604 81.200381 55.331368 81.200381 
z
" clip-path="url(#p8ea9fa52c6)" style="fill: #4f46e5; stroke: #4f46e5; stroke-linejoin: miter"/>
   </g>
   <g id="patch_7">
    <path d="M 70.856857 82.089371 
C 72.006621 82.089371 73.109448 81.632565 73.922453 80.819559 
C 74.735459 80.006553 75.192265 78.903726 75.192265 77.753963 
C 75.192265 76.604199 74.735459 75.501372 73.922453 74.688366 
C 73.109448 73.875361 72.006621 73.418555 70.856857 73.418555 
C 69.707093 73.418555 68.604266 73.875361 67.791261 74.688366 
C 66.978255 75.501372 66.521449 76.604199 66.521449 77.753963 
C 66.521449 78.903726 66.978255 80.006553 67.791261 80.819559 
C 68.604266 81.632565 69.707093 82.089371 70.856857 82.089371 
z
" clip-path="url(#p8ea9fa52c6)" style="fill: #4f46e5; stroke: #4f46e5; stroke-linejoin: miter"/>
   </g>
   <g id="patch_8">
    <path d="M 79.389489 69.088398 
C 80.539253 69.088398 81.64208 68.631592 82.455085 67.818586 
C 83.268091 67.00558 83.724897 65.902753 83.724897 64.75299 
C 83.724897 63.603226 83.268091 62.500399 82.455085 61.687393 
C 81.64208 60.874388 80.539253 60.417582 79.389489 60.417582 
C 78.239725 60.417582 77.136898 60.874388 76.323893 61.687393 
C 75.510887 62.500399 75.054081 63.603226 75.054081 64.75299 
C 75.054081 65.902753 75.510887 67.00558 76.323893 67.818586 
C 77.136898 68.631592 78.239725 69.088398 79.389489 69.088398 
z
" clip-path="url(#p8ea9fa52c6)" style="fill: #4f46e5; stroke: #4f46e5; stroke-linejoin: miter"/>
   </g>
   <g id="patch_9">
    <path d="M 56.496179 39.094562 
C 57.296014 39.094562 58.063199 38.776784 58.628768 38.211214 
C 59.194337 37.645645 59.512115 36.878461 59.512115 36.078626 
C 59.512115 35.27879 59.194337 34.511606 58.628768 33.946037 
C 58.063199 33.380468 57.296014 33.06269 56.496179 33.06269 
C 55.696343 33.06269 54.929159 33.380468 54.36359 33.946037 
C 53.798021 34.511606 53.480243 35.27879 53.480243 36.078626 
C 53.480243 36.878461 53.798021 37.645645 54.36359 38.211214 
C 54.929159 38.776784 55.696343 39.094562 56.496179 39.094562 
z
" clip-path="url(#p8ea9fa52c6)" style="fill: #6d5de3; opacity: 0.74; stroke: #6d5de3; stroke-linejoin: miter"/>
   </g>
   <g id="patch_10">
    <path d="M 43.590593 46.501006 
C 44.390428 46.501006 45.157612 46.183228 45.723181 45.617659 
C 46.288751 45.05209 46.606529 44.284906 46.606529 43.48507 
C 46.606529 42.685235 46.288751 41.918051 45.723181 41.352482 
C 45.157612 40.786912 44.390428 40.469134 43.590593 40.469134 
C 42.790757 40.469134 42.023573 40.786912 41.458004 41.352482 
C 40.892435 41.918051 40.574657 42.685235 40.574657 43.48507 
C 40.574657 44.284906 40.892435 45.05209 41.458004 45.617659 
C 42.023573 46.183228 42.790757 46.501006 43.590593 46.501006 
z
" clip-path="url(#p8ea9fa52c6)" style="fill: #6d5de3; opacity: 0.74; stroke: #6d5de3; stroke-linejoin: miter"/>
   </g>
   <g id="patch_11">
    <path d="M 36.117249 59.367969 
C 36.917085 59.367969 37.684269 59.050191 38.249838 58.484622 
C 38.815407 57.919053 39.133185 57.151869 39.133185 56.352033 
C 39.133185 55.552197 38.815407 54.785013 38.249838 54.219444 
C 37.684269 53.653875 36.917085 53.336097 36.117249 53.336097 
C 35.317414 53.336097 34.55023 53.653875 33.984661 54.219444 
C 33.419091 54.785013 33.101313 55.552197 33.101313 56.352033 
C 33.101313 57.151869 33.419091 57.919053 33.984661 58.484622 
C 34.55023 59.050191 35.317414 59.367969 36.117249 59.367969 
z
" clip-path="url(#p8ea9fa52c6)" style="fill: #6d5de3; opacity: 0.74; stroke: #6d5de3; stroke-linejoin: miter"/>
   </g>
   <g id="patch_12">
    <path d="M 36.078626 74.247757 
C 36.878461 74.247757 37.645645 73.929979 38.211214 73.36441 
C 38.776784 72.798841 39.094562 72.031657 39.094562 71.231821 
C 39.094562 70.431986 38.776784 69.664801 38.211214 69.099232 
C 37.645645 68.533663 36.878461 68.215885 36.078626 68.215885 
C 35.27879 68.215885 34.511606 68.533663 33.946037 69.099232 
C 33.380468 69.664801 33.06269 70.431986 33.06269 71.231821 
C 33.06269 72.031657 33.380468 72.798841 33.946037 73.36441 
C 34.511606 73.929979 35.27879 74.247757 36.078626 74.247757 
z
" clip-path="url(#p8ea9fa52c6)" style="fill: #6d5de3; opacity: 0.74; stroke: #6d5de3; stroke-linejoin: miter"/>
   </g>
   <g id="patch_13">
    <path d="M 43.48507 87.153343 
C 44.284906 87.153343 45.05209 86.835565 45.617659 86.269996 
C 46.183228 85.704427 46.501006 84.937243 46.501006 84.137407 
C 46.501006 83.337572 46.183228 82.570388 45.617659 82.004819 
C 45.05209 81.439249 44.284906 81.121471 43.48507 81.121471 
C 42.685235 81.121471 41.918051 81.439249 41.352482 82.004819 
C 40.786912 82.570388 40.469134 83.337572 40.469134 84.137407 
C 40.469134 84.937243 40.786912 85.704427 41.352482 86.269996 
C 41.918051 86.835565 42.685235 87.153343 43.48507 87.153343 
z
" clip-path="url(#p8ea9fa52c6)" style="fill: #6d5de3; opacity: 0.74; stroke: #6d5de3; stroke-linejoin: miter"/>
   </g>
   <g id="patch_14">
    <path d="M 56.352033 94.626687 
C 57.151869 94.626687 57.919053 94.308909 58.484622 93.743339 
C 59.050191 93.17777 59.367969 92.410586 59.367969 91.610751 
C 59.367969 90.810915 59.050191 90.043731 58.484622 89.478162 
C 57.919053 88.912593 57.151869 88.594815 56.352033 88.594815 
C 55.552197 88.594815 54.785013 88.912593 54.219444 89.478162 
C 53.653875 90.043731 53.336097 90.810915 53.336097 91.610751 
C 53.336097 92.410586 53.653875 93.17777 54.219444 93.743339 
C 54.785013 94.308909 55.552197 94.626687 56.352033 94.626687 
z
" clip-path="url(#p8ea9fa52c6)" style="fill: #6d5de3; opacity: 0.74; stroke: #6d5de3; stroke-linejoin: miter"/>
   </g>
   <g id="patch_15">
    <path d="M 71.231821 94.66531 
C 72.031657 94.66531 72.798841 94.347532 73.36441 93.781963 
C 73.929979 93.216394 74.247757 92.44921 74.247757 91.649374 
C 74.247757 90.849539 73.929979 90.082355 73.36441 89.516786 
C 72.798841 88.951216 72.031657 88.633438 71.231821 88.633438 
C 70.431986 88.633438 69.664801 88.951216 69.099232 89.516786 
C 68.533663 90.082355 68.215885 90.849539 68.215885 91.649374 
C 68.215885 92.44921 68.533663 93.216394 69.099232 93.781963 
C 69.664801 94.347532 70.431986 94.66531 71.231821 94.66531 
z
" clip-path="url(#p8ea9fa52c6)" style="fill: #6d5de3; opacity: 0.74; stroke: #6d5de3; stroke-linejoin: miter"/>
   </g>
   <g id="patch_16">
    <path d="M 84.137407 87.258866 
C 84.937243 87.258866 85.704427 86.941088 86.269996 86.375518 
C 86.835565 85.809949 87.153343 85.042765 87.153343 84.24293 
C 87.153343 83.443094 86.835565 82.67591 86.269996 82.110341 
C 85.704427 81.544772 84.937243 81.226994 84.137407 81.226994 
C 83.337572 81.226994 82.570388 81.544772 82.004819 82.110341 
C 81.439249 82.67591 81.121471 83.443094 81.121471 84.24293 
C 81.121471 85.042765 81.439249 85.809949 82.004819 86.375518 
C 82.570388 86.941088 83.337572 87.258866 84.137407 87.258866 
z
" clip-path="url(#p8ea9fa52c6)" style="fill: #6d5de3; opacity: 0.74; stroke: #6d5de3; stroke-linejoin: miter"/>
   </g>
   <g id="patch_17">
    <path d="M 91.610751 74.391903 
C 92.410586 74.391903 93.17777 74.074125 93.743339 73.508556 
C 94.308909 72.942987 94.626687 72.175803 94.626687 71.375967 
C 94.626687 70.576131 94.308909 69.808947 93.743339 69.243378 
C 93.17777 68.677809 92.410586 68.360031 91.610751 68.360031 
C 90.810915 68.360031 90.043731 68.677809 89.478162 69.243378 
C 88.912593 69.808947 88.594815 70.576131 88.594815 71.375967 
C 88.594815 72.175803 88.912593 72.942987 89.478162 73.508556 
C 90.043731 74.074125 90.810915 74.391903 91.610751 74.391903 
z
" clip-path="url(#p8ea9fa52c6)" style="fill: #6d5de3; opacity: 0.74; stroke: #6d5de3; stroke-linejoin: miter"/>
   </g>
   <g id="patch_18">
    <path d="M 91.649374 59.512115 
C 92.44921 59.512115 93.216394 59.194337 93.781963 58.628768 
C 94.347532 58.063199 94.66531 57.296014 94.66531 56.496179 
C 94.66531 55.696343 94.347532 54.929159 93.781963 54.36359 
C 93.216394 53.798021 92.44921 53.480243 91.649374 53.480243 
C 90.849539 53.480243 90.082355 53.798021 89.516786 54.36359 
C 88.951216 54.929159 88.633438 55.696343 88.633438 56.496179 
C 88.633438 57.296014 88.951216 58.063199 89.516786 58.628768 
C 90.082355 59.194337 90.849539 59.512115 91.649374 59.512115 
z
" clip-path="url(#p8ea9fa52c6)" style="fill: #6d5de3; opacity: 0.74; stroke: #6d5de3; stroke-linejoin: miter"/>
   </g>
   <g id="patch_19">
    <path d="M 84.24293 46.606529 
C 85.042765 46.606529 85.809949 46.288751 86.375518 45.723181 
C 86.941088 45.157612 87.258866 44.390428 87.258866 43.590593 
C 87.258866 42.790757 86.941088 42.023573 86.375518 41.458004 
C 85.809949 40.892435 85.042765 40.574657 84.24293 40.574657 
C 83.443094 40.574657 82.67591 40.892435 82.110341 41.458004 
C 81.544772 42.023573 81.226994 42.790757 81.226994 43.590593 
C 81.226994 44.390428 81.544772 45.157612 82.110341 45.723181 
C 82.67591 46.288751 83.443094 46.606529 84.24293 46.606529 
z
" clip-path="url(#p8ea9fa52c6)" style="fill: #6d5de3; opacity: 0.74; stroke: #6d5de3; stroke-linejoin: miter"/>
   </g>
   <g id="patch_20">
    <path d="M 71.375967 39.133185 
C 72.175803 39.133185 72.942987 38.815407 73.508556 38.249838 
C 74.074125 37.684269 74.391903 36.917085 74.391903 36.117249 
C 74.391903 35.317414 74.074125 34.55023 73.508556 33.984661 
C 72.942987 33.419091 72.175803 33.101313 71.375967 33.101313 
C 70.576131 33.101313 69.808947 33.419091 69.243378 33.984661 
C 68.677809 34.55023 68.360031 35.317414 68.360031 36.117249 
C 68.360031 36.917085 68.677809 37.684269 69.243378 38.249838 
C 69.808947 38.815407 70.576131 39.133185 71.375967 39.133185 
z
" clip-path="url(#p8ea9fa52c6)" style="fill: #6d5de3; opacity: 0.74; stroke: #6d5de3; stroke-linejoin: miter"/>
   </g>
   <g id="patch_21">
    <path d="M 26.501604 46.883713 
C 27.051491 46.883713 27.57893 46.66524 27.967758 46.276411 
C 28.356587 45.887583 28.57506 45.360144 28.57506 44.810257 
C 28.57506 44.26037 28.356587 43.732931 27.967758 43.344102 
C 27.57893 42.955273 27.051491 42.736801 26.501604 42.736801 
C 25.951717 42.736801 25.424278 42.955273 25.035449 43.344102 
C 24.64662 43.732931 24.428148 44.26037 24.428148 44.810257 
C 24.428148 45.360144 24.64662 45.887583 25.035449 46.276411 
C 25.424278 46.66524 25.951717 46.883713 26.501604 46.883713 
z
" clip-path="url(#p8ea9fa52c6)" style="fill: #7c3aed; opacity: 0.42; stroke: #7c3aed; stroke-linejoin: miter"/>
   </g>
   <g id="patch_22">
    <path d="M 22.442319 59.361885 
C 22.992206 59.361885 23.519645 59.143412 23.908474 58.754583 
C 24.297303 58.365755 24.515775 57.838316 24.515775 57.288429 
C 24.515775 56.738542 24.297303 56.211103 23.908474 55.822274 
C 23.519645 55.433445 22.992206 55.214973 22.442319 55.214973 
C 21.892432 55.214973 21.364993 55.433445 20.976164 55.822274 
C 20.587335 56.211103 20.368863 56.738542 20.368863 57.288429 
C 20.368863 57.838316 20.587335 58.365755 20.976164 58.754583 
C 21.364993 59.143412 21.892432 59.361885 22.442319 59.361885 
z
" clip-path="url(#p8ea9fa52c6)" style="fill: #7c3aed; opacity: 0.42; stroke: #7c3aed; stroke-linejoin: miter"/>
   </g>
   <g id="patch_23">
    <path d="M 22.437677 72.483719 
C 22.987564 72.483719 23.515003 72.265247 23.903832 71.876418 
C 24.292661 71.487589 24.511133 70.96015 24.511133 70.410263 
C 24.511133 69.860376 24.292661 69.332937 23.903832 68.944109 
C 23.515003 68.55528 22.987564 68.336807 22.437677 68.336807 
C 21.88779 68.336807 21.360351 68.55528 20.971522 68.944109 
C 20.582693 69.332937 20.364221 69.860376 20.364221 70.410263 
C 20.364221 70.96015 20.582693 71.487589 20.971522 71.876418 
C 21.360351 72.265247 21.88779 72.483719 22.437677 72.483719 
z
" clip-path="url(#p8ea9fa52c6)" style="fill: #7c3aed; opacity: 0.42; stroke: #7c3aed; stroke-linejoin: miter"/>
   </g>
   <g id="patch_24">
    <path d="M 26.488132 84.96476 
C 27.038019 84.96476 27.565458 84.746288 27.954287 84.357459 
C 28.343116 83.96863 28.561588 83.441191 28.561588 82.891304 
C 28.561588 82.341417 28.343116 81.813978 27.954287 81.425149 
C 27.565458 81.036321 27.038019 80.817848 26.488132 80.817848 
C 25.938245 80.817848 25.410806 81.036321 25.021977 81.425149 
C 24.633149 81.813978 24.414676 82.341417 24.414676 82.891304 
C 24.414676 83.441191 24.633149 83.96863 25.021977 84.357459 
C 25.410806 84.746288 25.938245 84.96476 26.488132 84.96476 
z
" clip-path="url(#p8ea9fa52c6)" style="fill: #7c3aed; opacity: 0.42; stroke: #7c3aed; stroke-linejoin: miter"/>
   </g>
   <g id="patch_25">
    <path d="M 34.197198 95.583276 
C 34.747085 95.583276 35.274524 95.364804 35.663353 94.975975 
C 36.052181 94.587146 36.270654 94.059707 36.270654 93.50982 
C 36.270654 92.959933 36.052181 92.432494 35.663353 92.043665 
C 35.274524 91.654836 34.747085 91.436364 34.197198 91.436364 
C 33.647311 91.436364 33.119872 91.654836 32.731043 92.043665 
C 32.342214 92.432494 32.123742 92.959933 32.123742 93.50982 
C 32.123742 94.059707 32.342214 94.587146 32.731043 94.975975 
C 33.119872 95.364804 33.647311 95.583276 34.197198 95.583276 
z
" clip-path="url(#p8ea9fa52c6)" style="fill: #7c3aed; opacity: 0.42; stroke: #7c3aed; stroke-linejoin: miter"/>
   </g>
   <g id="patch_26">
    <path d="M 44.810257 103.299852 
C 45.360144 103.299852 45.887583 103.08138 46.276411 102.692551 
C 46.66524 102.303722 46.883713 101.776283 46.883713 101.226396 
C 46.883713 100.676509 46.66524 100.14907 46.276411 99.760242 
C 45.887583 99.371413 45.360144 99.15294 44.810257 99.15294 
C 44.26037 99.15294 43.732931 99.371413 43.344102 99.760242 
C 42.955273 100.14907 42.736801 100.676509 42.736801 101.226396 
C 42.736801 101.776283 42.955273 102.303722 43.344102 102.692551 
C 43.732931 103.08138 44.26037 103.299852 44.810257 103.299852 
z
" clip-path="url(#p8ea9fa52c6)" style="fill: #7c3aed; opacity: 0.42; stroke: #7c3aed; stroke-linejoin: miter"/>
   </g>
   <g id="patch_27">
    <path d="M 57.288429 107.359137 
C 57.838316 107.359137 58.365755 107.140665 58.754583 106.751836 
C 59.143412 106.363007 59.361885 105.835568 59.361885 105.285681 
C 59.361885 104.735794 59.143412 104.208355 58.754583 103.819526 
C 58.365755 103.430697 57.838316 103.212225 57.288429 103.212225 
C 56.738542 103.212225 56.211103 103.430697 55.822274 103.819526 
C 55.433445 104.208355 55.214973 104.735794 55.214973 105.285681 
C 55.214973 105.835568 55.433445 106.363007 55.822274 106.751836 
C 56.211103 107.140665 56.738542 107.359137 57.288429 107.359137 
z
" clip-path="url(#p8ea9fa52c6)" style="fill: #7c3aed; opacity: 0.42; stroke: #7c3aed; stroke-linejoin: miter"/>
   </g>
   <g id="patch_28">
    <path d="M 70.410263 107.363779 
C 70.96015 107.363779 71.487589 107.145307 71.876418 106.756478 
C 72.265247 106.367649 72.483719 105.84021 72.483719 105.290323 
C 72.483719 104.740436 72.265247 104.212997 71.876418 103.824168 
C 71.487589 103.435339 70.96015 103.216867 70.410263 103.216867 
C 69.860376 103.216867 69.332937 103.435339 68.944109 103.824168 
C 68.55528 104.212997 68.336807 104.740436 68.336807 105.290323 
C 68.336807 105.84021 68.55528 106.367649 68.944109 106.756478 
C 69.332937 107.145307 69.860376 107.363779 70.410263 107.363779 
z
" clip-path="url(#p8ea9fa52c6)" style="fill: #7c3aed; opacity: 0.42; stroke: #7c3aed; stroke-linejoin: miter"/>
   </g>
   <g id="patch_29">
    <path d="M 82.891304 103.313324 
C 83.441191 103.313324 83.96863 103.094851 84.357459 102.706023 
C 84.746288 102.317194 84.96476 101.789755 84.96476 101.239868 
C 84.96476 100.689981 84.746288 100.162542 84.357459 99.773713 
C 83.96863 99.384884 83.441191 99.166412 82.891304 99.166412 
C 82.341417 99.166412 81.813978 99.384884 81.425149 99.773713 
C 81.036321 100.162542 80.817848 100.689981 80.817848 101.239868 
C 80.817848 101.789755 81.036321 102.317194 81.425149 102.706023 
C 81.813978 103.094851 82.341417 103.313324 82.891304 103.313324 
z
" clip-path="url(#p8ea9fa52c6)" style="fill: #7c3aed; opacity: 0.42; stroke: #7c3aed; stroke-linejoin: miter"/>
   </g>
   <g id="patch_30">
    <path d="M 93.50982 95.604258 
C 94.059707 95.604258 94.587146 95.385786 94.975975 94.996957 
C 95.364804 94.608128 95.583276 94.080689 95.583276 93.530802 
C 95.583276 92.980915 95.364804 92.453476 94.975975 92.064647 
C 94.587146 91.675819 94.059707 91.457346 93.50982 91.457346 
C 92.959933 91.457346 92.432494 91.675819 92.043665 92.064647 
C 91.654836 92.453476 91.436364 92.980915 91.436364 93.530802 
C 91.436364 94.080689 91.654836 94.608128 92.043665 94.996957 
C 92.432494 95.385786 92.959933 95.604258 93.50982 95.604258 
z
" clip-path="url(#p8ea9fa52c6)" style="fill: #7c3aed; opacity: 0.42; stroke: #7c3aed; stroke-linejoin: miter"/>
   </g>
   <g id="patch_31">
    <path d="M 101.226396 84.991199 
C 101.776283 84.991199 102.303722 84.772727 102.692551 84.383898 
C 103.08138 83.995069 103.299852 83.46763 103.299852 82.917743 
C 103.299852 82.367856 103.08138 81.840417 102.692551 81.451589 
C 102.303722 81.06276 101.776283 80.844287 101.226396 80.844287 
C 100.676509 80.844287 100.14907 81.06276 99.760242 81.451589 
C 99.371413 81.840417 99.15294 82.367856 99.15294 82.917743 
C 99.15294 83.46763 99.371413 83.995069 99.760242 84.383898 
C 100.14907 84.772727 100.676509 84.991199 101.226396 84.991199 
z
" clip-path="url(#p8ea9fa52c6)" style="fill: #7c3aed; opacity: 0.42; stroke: #7c3aed; stroke-linejoin: miter"/>
   </g>
   <g id="patch_32">
    <path d="M 105.285681 72.513027 
C 105.835568 72.513027 106.363007 72.294555 106.751836 71.905726 
C 107.140665 71.516897 107.359137 70.989458 107.359137 70.439571 
C 107.359137 69.889684 107.140665 69.362245 106.751836 68.973417 
C 106.363007 68.584588 105.835568 68.366115 105.285681 68.366115 
C 104.735794 68.366115 104.208355 68.584588 103.819526 68.973417 
C 103.430697 69.362245 103.212225 69.889684 103.212225 70.439571 
C 103.212225 70.989458 103.430697 71.516897 103.819526 71.905726 
C 104.208355 72.294555 104.735794 72.513027 105.285681 72.513027 
z
" clip-path="url(#p8ea9fa52c6)" style="fill: #7c3aed; opacity: 0.42; stroke: #7c3aed; stroke-linejoin: miter"/>
   </g>
   <g id="patch_33">
    <path d="M 105.290323 59.391193 
C 105.84021 59.391193 106.367649 59.17272 106.756478 58.783891 
C 107.145307 58.395063 107.363779 57.867624 107.363779 57.317737 
C 107.363779 56.76785 107.145307 56.240411 106.756478 55.851582 
C 106.367649 55.462753 105.84021 55.244281 105.290323 55.244281 
C 104.740436 55.244281 104.212997 55.462753 103.824168 55.851582 
C 103.435339 56.240411 103.216867 56.76785 103.216867 57.317737 
C 103.216867 57.867624 103.435339 58.395063 103.824168 58.783891 
C 104.212997 59.17272 104.740436 59.391193 105.290323 59.391193 
z
" clip-path="url(#p8ea9fa52c6)" style="fill: #7c3aed; opacity: 0.42; stroke: #7c3aed; stroke-linejoin: miter"/>
   </g>
   <g id="patch_34">
    <path d="M 101.239868 46.910152 
C 101.789755 46.910152 102.317194 46.691679 102.706023 46.302851 
C 103.094851 45.914022 103.313324 45.386583 103.313324 44.836696 
C 103.313324 44.286809 103.094851 43.75937 102.706023 43.370541 
C 102.317194 42.981712 101.789755 42.76324 101.239868 42.76324 
C 100.689981 42.76324 100.162542 42.981712 99.773713 43.370541 
C 99.384884 43.75937 99.166412 44.286809 99.166412 44.836696 
C 99.166412 45.386583 99.384884 45.914022 99.773713 46.302851 
C 100.162542 46.691679 100.689981 46.910152 101.239868 46.910152 
z
" clip-path="url(#p8ea9fa52c6)" style="fill: #7c3aed; opacity: 0.42; stroke: #7c3aed; stroke-linejoin: miter"/>
   </g>
   <g id="patch_35">
    <path d="M 93.530802 36.291636 
C 94.080689 36.291636 94.608128 36.073164 94.996957 35.684335 
C 95.385786 35.295506 95.604258 34.768067 95.604258 34.21818 
C 95.604258 33.668293 95.385786 33.140854 94.996957 32.752025 
C 94.608128 32.363196 94.080689 32.144724 93.530802 32.144724 
C 92.980915 32.144724 92.453476 32.363196 92.064647 32.752025 
C 91.675819 33.140854 91.457346 33.668293 91.457346 34.21818 
C 91.457346 34.768067 91.675819 35.295506 92.064647 35.684335 
C 92.453476 36.073164 92.980915 36.291636 93.530802 36.291636 
z
" clip-path="url(#p8ea9fa52c6)" style="fill: #7c3aed; opacity: 0.42; stroke: #7c3aed; stroke-linejoin: miter"/>
   </g>
   <g id="patch_36">
    <path d="M 82.917743 28.57506 
C 83.46763 28.57506 83.995069 28.356587 84.383898 27.967758 
C 84.772727 27.57893 84.991199 27.051491 84.991199 26.501604 
C 84.991199 25.951717 84.772727 25.424278 84.383898 25.035449 
C 83.995069 24.64662 83.46763 24.428148 82.917743 24.428148 
C 82.367856 24.428148 81.840417 24.64662 81.451589 25.035449 
C 81.06276 25.424278 80.844287 25.951717 80.844287 26.501604 
C 80.844287 27.051491 81.06276 27.57893 81.451589 27.967758 
C 81.840417 28.356587 82.367856 28.57506 82.917743 28.57506 
z
" clip-path="url(#p8ea9fa52c6)" style="fill: #7c3aed; opacity: 0.42; stroke: #7c3aed; stroke-linejoin: miter"/>
   </g>
   <g id="patch_37">
    <path d="M 70.439571 24.515775 
C 70.989458 24.515775 71.516897 24.297303 71.905726 23.908474 
C 72.294555 23.519645 72.513027 22.992206 72.513027 22.442319 
C 72.513027 21.892432 72.294555 21.364993 71.905726 20.976164 
C 71.516897 20.587335 70.989458 20.368863 70.439571 20.368863 
C 69.889684 20.368863 69.362245 20.587335 68.973417 20.976164 
C 68.584588 21.364993 68.366115 21.892432 68.366115 22.442319 
C 68.366115 22.992206 68.584588 23.519645 68.973417 23.908474 
C 69.362245 24.297303 69.889684 24.515775 70.439571 24.515775 
z
" clip-path="url(#p8ea9fa52c6)" style="fill: #7c3aed; opacity: 0.42; stroke: #7c3aed; stroke-linejoin: miter"/>
   </g>
   <g id="patch_38">
    <path d="M 57.317737 24.511133 
C 57.867624 24.511133 58.395063 24.292661 58.783891 23.903832 
C 59.17272 23.515003 59.391193 22.987564 59.391193 22.437677 
C 59.391193 21.88779 59.17272 21.360351 58.783891 20.971522 
C 58.395063 20.582693 57.867624 20.364221 57.317737 20.364221 
C 56.76785 20.364221 56.240411 20.582693 55.851582 20.971522 
C 55.462753 21.360351 55.244281 21.88779 55.244281 22.437677 
C 55.244281 22.987564 55.462753 23.515003 55.851582 23.903832 
C 56.240411 24.292661 56.76785 24.511133 57.317737 24.511133 
z
" clip-path="url(#p8ea9fa52c6)" style="fill: #7c3aed; opacity: 0.42; stroke: #7c3aed; stroke-linejoin: miter"/>
   </g>
   <g id="patch_39">
    <path d="M 44.836696 28.561588 
C 45.386583 28.561588 45.914022 28.343116 46.302851 27.954287 
C 46.691679 27.565458 46.910152 27.038019 46.910152 26.488132 
C 46.910152 25.938245 46.691679 25.410806 46.302851 25.021977 
C 45.914022 24.633149 45.386583 24.414676 44.836696 24.414676 
C 44.286809 24.414676 43.75937 24.633149 43.370541 25.021977 
C 42.981712 25.410806 42.76324 25.938245 42.76324 26.488132 
C 42.76324 27.038019 42.981712 27.565458 43.370541 27.954287 
C 43.75937 28.343116 44.286809 28.561588 44.836696 28.561588 
z
" clip-path="url(#p8ea9fa52c6)" style="fill: #7c3aed; opacity: 0.42; stroke: #7c3aed; stroke-linejoin: miter"/>
   </g>
   <g id="patch_40">
    <path d="M 34.21818 36.270654 
C 34.768067 36.270654 35.295506 36.052181 35.684335 35.663353 
C 36.073164 35.274524 36.291636 34.747085 36.291636 34.197198 
C 36.291636 33.647311 36.073164 33.119872 35.684335 32.731043 
C 35.295506 32.342214 34.768067 32.123742 34.21818 32.123742 
C 33.668293 32.123742 33.140854 32.342214 32.752025 32.731043 
C 32.363196 33.119872 32.144724 33.647311 32.144724 34.197198 
C 32.144724 34.747085 32.363196 35.274524 32.752025 35.663353 
C 33.140854 36.052181 33.668293 36.270654 34.21818 36.270654 
z
" clip-path="url(#p8ea9fa52c6)" style="fill: #7c3aed; opacity: 0.42; stroke: #7c3aed; stroke-linejoin: miter"/>
   </g>
   <g id="patch_41">
    <path d="M 63.864 71.592336 
C 65.913579 71.592336 67.879488 70.77803 69.328759 69.328759 
C 70.77803 67.879488 71.592336 65.913579 71.592336 63.864 
C 71.592336 61.814421 70.77803 59.848512 69.328759 58.399241 
C 67.879488 56.94997 65.913579 56.135664 63.864 56.135664 
C 61.814421 56.135664 59.848512 56.94997 58.399241 58.399241 
C 56.94997 59.848512 56.135664 61.814421 56.135664 63.864 
C 56.135664 65.913579 56.94997 67.879488 58.399241 69.328759 
C 59.848512 70.77803 61.814421 71.592336 63.864 71.592336 
z
" clip-path="url(#p8ea9fa52c6)" style="fill: #f59e0b; stroke: #f59e0b; stroke-linejoin: miter"/>
   </g>
   <g id="patch_42">
    <path d="M 63.864 75.362256 
C 66.913373 75.362256 69.838262 74.150727 71.994495 71.994495 
C 74.150727 69.838262 75.362256 66.913373 75.362256 63.864 
C 75.362256 60.814627 74.150727 57.889738 71.994495 55.733505 
C 69.838262 53.577273 66.913373 52.365744 63.864 52.365744 
C 60.814627 52.365744 57.889738 53.577273 55.733505 55.733505 
C 53.577273 57.889738 52.365744 60.814627 52.365744 63.864 
C 52.365744 66.913373 53.577273 69.838262 55.733505 71.994495 
C 57.889738 74.150727 60.814627 75.362256 63.864 75.362256 
L 63.864 75.362256 
z
" clip-path="url(#p8ea9fa52c6)" style="fill: none; opacity: 0.55; stroke: #f59e0b; stroke-width: 2.72; stroke-linejoin: miter"/>
   </g>
   <g id="patch_43">
    <path d="M 104.494269 91.269463 
C 109.954628 83.174148 112.87296 73.628713 112.87296 63.864 
C 112.87296 54.099287 109.954628 44.553852 104.494269 36.458537 
" clip-path="url(#p8ea9fa52c6)" style="fill: none; opacity: 0.95; stroke: #f59e0b; stroke-width: 5.78; stroke-linejoin: miter; stroke-linecap: round"/>
   </g>
  </g>
 </g>
 <defs>
  <clipPath id="p8ea9fa52c6">
   <rect x="2.88" y="2.88" width="421.344" height="121.968"/>
  </clipPath>
 </defs>
</svg>
