<?xml version="1.0" encoding="utf-8" standalone="no"?>
<!DOCTYPE svg PUBLIC "-//W3C//DTD SVG 1.1//EN"
  "http://www.w3.org/Graphics/SVG/1.1/DTD/svg11.dtd">
<svg xmlns:xlink="http://www.w3.org/1999/xlink" width="138.816pt" height="138.816pt" viewBox="0 0 138.816 138.816" xmlns="http://www.w3.org/2000/svg" version="1.1">
 <metadata>
  <rdf:RDF xmlns:dc="http://purl.org/dc/elements/1.1/" xmlns:cc="http://creativecommons.org/ns#" xmlns:rdf="http://www.w3.org/1999/02/22-rdf-syntax-ns#">
   <cc:Work>
    <dc:type rdf:resource="http://purl.org/dc/dcmitype/StillImage"/>
    <dc:date>2026-06-30T00:00:56.919078</dc:date>
    <dc:format>image/svg+xml</dc:format>
    <dc:creator>
     <cc:Agent>
      <dc:title>Matplotlib v3.11.0, https://matplotlib.org/</dc:title>
     </cc:Agent>
    </dc:creator>
   </cc:Work>
  </rdf:RDF>
 </metadata>
 <defs>
  <style type="text/css">*{stroke-linejoin: round; stroke-linecap: butt}</style>
 </defs>
 <g id="figure_1">
  <g id="patch_1">
   <path d="M 0 138.816 
L 138.816 138.816 
L 138.816 0 
L 0 0 
L 0 138.816 
z
" style="fill: none"/>
  </g>
  <g id="axes_1">
   <g id="patch_2">
    <path d="M 69.408 135.936 
C 87.051432 135.936 103.97461 128.92619 116.4504 116.4504 
C 128.92619 103.97461 135.936 87.051432 135.936 69.408 
C 135.936 51.764568 128.92619 34.84139 116.4504 22.3656 
C 103.97461 9.88981 87.051432 2.88 69.408 2.88 
C 51.764568 2.88 34.84139 9.88981 22.3656 22.3656 
C 9.88981 34.84139 2.88 51.764568 2.88 69.408 
C 2.88 87.051432 9.88981 103.97461 22.3656 116.4504 
C 34.84139 128.92619 51.764568 135.936 69.408 135.936 
L 69.408 135.936 
z
" clip-path="url(#pd19a8801e5)" style="fill: none; opacity: 0.16; stroke: #4f46e5; stroke-width: 2.2; stroke-linejoin: miter"/>
   </g>
   <g id="patch_3">
    <path d="M 81.454069 57.174261 
C 83.077265 57.174261 84.634197 56.529359 85.78197 55.381586 
C 86.929742 54.233813 87.574645 52.676881 87.574645 51.053685 
C 87.574645 49.430489 86.929742 47.873557 85.78197 46.725784 
C 84.634197 45.578012 83.077265 44.933109 81.454069 44.933109 
C 79.830873 44.933109 78.273941 45.578012 77.126168 46.725784 
C 75.978395 47.873557 75.333493 49.430489 75.333493 51.053685 
C 75.333493 52.676881 75.978395 54.233813 77.126168 55.381586 
C 78.273941 56.529359 79.830873 57.174261 81.454069 57.174261 
z
" clip-path="url(#pd19a8801e5)" style="fill: #4f46e5; stroke: #4f46e5; stroke-linejoin: miter"/>
   </g>
   <g id="patch_4">
    <path d="M 59.535731 55.919217 
C 61.158927 55.919217 62.715859 55.274314 63.863632 54.126542 
C 65.011405 52.978769 65.656307 51.421837 65.656307 49.798641 
C 65.656307 48.175445 65.011405 46.618513 63.863632 45.47074 
C 62.715859 44.322967 61.158927 43.678065 59.535731 43.678065 
C 57.912536 43.678065 56.355603 44.322967 55.207831 45.47074 
C 54.060058 46.618513 53.415155 48.175445 53.415155 49.798641 
C 53.415155 51.421837 54.060058 52.978769 55.207831 54.126542 
C 56.355603 55.274314 57.912536 55.919217 59.535731 55.919217 
z
" clip-path="url(#pd19a8801e5)" style="fill: #4f46e5; stroke: #4f46e5; stroke-linejoin: miter"/>
   </g>
   <g id="patch_5">
    <path d="M 47.489663 74.273532 
C 49.112858 74.273532 50.669791 73.628629 51.817563 72.480857 
C 52.965336 71.333084 53.610239 69.776152 53.610239 68.152956 
C 53.610239 66.52976 52.965336 64.972828 51.817563 63.825055 
C 50.669791 62.677282 49.112858 62.03238 47.489663 62.03238 
C 45.866467 62.03238 44.309534 62.677282 43.161762 63.825055 
C 42.013989 64.972828 41.369087 66.52976 41.369087 68.152956 
C 41.369087 69.776152 42.013989 71.333084 43.161762 72.480857 
C 44.309534 73.628629 45.866467 74.273532 47.489663 74.273532 
z
" clip-path="url(#pd19a8801e5)" style="fill: #4f46e5; stroke: #4f46e5; stroke-linejoin: miter"/>
   </g>
   <g id="patch_6">
    <path d="M 57.361931 93.882891 
C 58.985127 93.882891 60.542059 93.237988 61.689832 92.090216 
C 62.837605 90.942443 63.482507 89.385511 63.482507 87.762315 
C 63.482507 86.139119 62.837605 84.582187 61.689832 83.434414 
C 60.542059 82.286641 58.985127 81.641739 57.361931 81.641739 
C 55.738735 81.641739 54.181803 82.286641 53.03403 83.434414 
C 51.886258 84.582187 51.241355 86.139119 51.241355 87.762315 
C 51.241355 89.385511 51.886258 90.942443 53.03403 92.090216 
C 54.181803 93.237988 55.738735 93.882891 57.361931 93.882891 
z
" clip-path="url(#pd19a8801e5)" style="fill: #4f46e5; stroke: #4f46e5; stroke-linejoin: miter"/>
   </g>
   <g id="patch_7">
    <path d="M 79.280269 95.137935 
C 80.903464 95.137935 82.460397 94.493033 83.608169 93.34526 
C 84.755942 92.197487 85.400845 90.640555 85.400845 89.017359 
C 85.400845 87.394163 84.755942 85.837231 83.608169 84.689458 
C 82.460397 83.541686 80.903464 82.896783 79.280269 82.896783 
C 77.657073 82.896783 76.100141 83.541686 74.952368 84.689458 
C 73.804595 85.837231 73.159693 87.394163 73.159693 89.017359 
C 73.159693 90.640555 73.804595 92.197487 74.952368 93.34526 
C 76.100141 94.493033 77.657073 95.137935 79.280269 95.137935 
z
" clip-path="url(#pd19a8801e5)" style="fill: #4f46e5; stroke: #4f46e5; stroke-linejoin: miter"/>
   </g>
   <g id="patch_8">
    <path d="M 91.326337 76.78362 
C 92.949533 76.78362 94.506466 76.138718 95.654238 74.990945 
C 96.802011 73.843172 97.446913 72.28624 97.446913 70.663044 
C 97.446913 69.039848 96.802011 67.482916 95.654238 66.335143 
C 94.506466 65.187371 92.949533 64.542468 91.326337 64.542468 
C 89.703142 64.542468 88.146209 65.187371 86.998437 66.335143 
C 85.850664 67.482916 85.205761 69.039848 85.205761 70.663044 
C 85.205761 72.28624 85.850664 73.843172 86.998437 74.990945 
C 88.146209 76.138718 89.703142 76.78362 91.326337 76.78362 
z
" clip-path="url(#pd19a8801e5)" style="fill: #4f46e5; stroke: #4f46e5; stroke-linejoin: miter"/>
   </g>
   <g id="patch_9">
    <path d="M 59.00637 34.439381 
C 60.13555 34.439381 61.218633 33.990753 62.017084 33.192303 
C 62.815534 32.393852 63.264162 31.310769 63.264162 30.181589 
C 63.264162 29.052409 62.815534 27.969326 62.017084 27.170875 
C 61.218633 26.372425 60.13555 25.923797 59.00637 25.923797 
C 57.877191 25.923797 56.794107 26.372425 55.995657 27.170875 
C 55.197206 27.969326 54.748578 29.052409 54.748578 30.181589 
C 54.748578 31.310769 55.197206 32.393852 55.995657 33.192303 
C 56.794107 33.990753 57.877191 34.439381 59.00637 34.439381 
z
" clip-path="url(#pd19a8801e5)" style="fill: #6d5de3; opacity: 0.74; stroke: #6d5de3; stroke-linejoin: miter"/>
   </g>
   <g id="patch_10">
    <path d="M 40.786719 44.895539 
C 41.915899 44.895539 42.998982 44.446911 43.797432 43.64846 
C 44.595883 42.85001 45.044511 41.766926 45.044511 40.637747 
C 45.044511 39.508567 44.595883 38.425484 43.797432 37.627033 
C 42.998982 36.828582 41.915899 36.379955 40.786719 36.379955 
C 39.657539 36.379955 38.574456 36.828582 37.776005 37.627033 
C 36.977555 38.425484 36.528927 39.508567 36.528927 40.637747 
C 36.528927 41.766926 36.977555 42.85001 37.776005 43.64846 
C 38.574456 44.446911 39.657539 44.895539 40.786719 44.895539 
z
" clip-path="url(#pd19a8801e5)" style="fill: #6d5de3; opacity: 0.74; stroke: #6d5de3; stroke-linejoin: miter"/>
   </g>
   <g id="patch_11">
    <path d="M 30.236117 63.060662 
C 31.365296 63.060662 32.44838 62.612034 33.24683 61.813584 
C 34.045281 61.015133 34.493909 59.93205 34.493909 58.80287 
C 34.493909 57.673691 34.045281 56.590607 33.24683 55.792157 
C 32.44838 54.993706 31.365296 54.545078 30.236117 54.545078 
C 29.106937 54.545078 28.023854 54.993706 27.225403 55.792157 
C 26.426953 56.590607 25.978325 57.673691 25.978325 58.80287 
C 25.978325 59.93205 26.426953 61.015133 27.225403 61.813584 
C 28.023854 62.612034 29.106937 63.060662 30.236117 63.060662 
z
" clip-path="url(#pd19a8801e5)" style="fill: #6d5de3; opacity: 0.74; stroke: #6d5de3; stroke-linejoin: miter"/>
   </g>
   <g id="patch_12">
    <path d="M 30.181589 84.067422 
C 31.310769 84.067422 32.393852 83.618794 33.192303 82.820343 
C 33.990753 82.021893 34.439381 80.938809 34.439381 79.80963 
C 34.439381 78.68045 33.990753 77.597367 33.192303 76.798916 
C 32.393852 76.000466 31.310769 75.551838 30.181589 75.551838 
C 29.052409 75.551838 27.969326 76.000466 27.170875 76.798916 
C 26.372425 77.597367 25.923797 78.68045 25.923797 79.80963 
C 25.923797 80.938809 26.372425 82.021893 27.170875 82.820343 
C 27.969326 83.618794 29.052409 84.067422 30.181589 84.067422 
z
" clip-path="url(#pd19a8801e5)" style="fill: #6d5de3; opacity: 0.74; stroke: #6d5de3; stroke-linejoin: miter"/>
   </g>
   <g id="patch_13">
    <path d="M 40.637747 102.287073 
C 41.766926 102.287073 42.85001 101.838445 43.64846 101.039995 
C 44.446911 100.241544 44.895539 99.158461 44.895539 98.029281 
C 44.895539 96.900101 44.446911 95.817018 43.64846 95.018568 
C 42.85001 94.220117 41.766926 93.771489 40.637747 93.771489 
C 39.508567 93.771489 38.425484 94.220117 37.627033 95.018568 
C 36.828582 95.817018 36.379955 96.900101 36.379955 98.029281 
C 36.379955 99.158461 36.828582 100.241544 37.627033 101.039995 
C 38.425484 101.838445 39.508567 102.287073 40.637747 102.287073 
z
" clip-path="url(#pd19a8801e5)" style="fill: #6d5de3; opacity: 0.74; stroke: #6d5de3; stroke-linejoin: miter"/>
   </g>
   <g id="patch_14">
    <path d="M 58.80287 112.837675 
C 59.93205 112.837675 61.015133 112.389047 61.813584 111.590597 
C 62.612034 110.792146 63.060662 109.709063 63.060662 108.579883 
C 63.060662 107.450704 62.612034 106.36762 61.813584 105.56917 
C 61.015133 104.770719 59.93205 104.322091 58.80287 104.322091 
C 57.673691 104.322091 56.590607 104.770719 55.792157 105.56917 
C 54.993706 106.36762 54.545078 107.450704 54.545078 108.579883 
C 54.545078 109.709063 54.993706 110.792146 55.792157 111.590597 
C 56.590607 112.389047 57.673691 112.837675 58.80287 112.837675 
z
" clip-path="url(#pd19a8801e5)" style="fill: #6d5de3; opacity: 0.74; stroke: #6d5de3; stroke-linejoin: miter"/>
   </g>
   <g id="patch_15">
    <path d="M 79.80963 112.892203 
C 80.938809 112.892203 82.021893 112.443575 82.820343 111.645125 
C 83.618794 110.846674 84.067422 109.763591 84.067422 108.634411 
C 84.067422 107.505231 83.618794 106.422148 82.820343 105.623697 
C 82.021893 104.825247 80.938809 104.376619 79.80963 104.376619 
C 78.68045 104.376619 77.597367 104.825247 76.798916 105.623697 
C 76.000466 106.422148 75.551838 107.505231 75.551838 108.634411 
C 75.551838 109.763591 76.000466 110.846674 76.798916 111.645125 
C 77.597367 112.443575 78.68045 112.892203 79.80963 112.892203 
z
" clip-path="url(#pd19a8801e5)" style="fill: #6d5de3; opacity: 0.74; stroke: #6d5de3; stroke-linejoin: miter"/>
   </g>
   <g id="patch_16">
    <path d="M 98.029281 102.436045 
C 99.158461 102.436045 100.241544 101.987418 101.039995 101.188967 
C 101.838445 100.390516 102.287073 99.307433 102.287073 98.178253 
C 102.287073 97.049074 101.838445 95.96599 101.039995 95.16754 
C 100.241544 94.369089 99.158461 93.920461 98.029281 93.920461 
C 96.900101 93.920461 95.817018 94.369089 95.018568 95.16754 
C 94.220117 95.96599 93.771489 97.049074 93.771489 98.178253 
C 93.771489 99.307433 94.220117 100.390516 95.018568 101.188967 
C 95.817018 101.987418 96.900101 102.436045 98.029281 102.436045 
z
" clip-path="url(#pd19a8801e5)" style="fill: #6d5de3; opacity: 0.74; stroke: #6d5de3; stroke-linejoin: miter"/>
   </g>
   <g id="patch_17">
    <path d="M 108.579883 84.270922 
C 109.709063 84.270922 110.792146 83.822294 111.590597 83.023843 
C 112.389047 82.225393 112.837675 81.142309 112.837675 80.01313 
C 112.837675 78.88395 112.389047 77.800867 111.590597 77.002416 
C 110.792146 76.203966 109.709063 75.755338 108.579883 75.755338 
C 107.450704 75.755338 106.36762 76.203966 105.56917 77.002416 
C 104.770719 77.800867 104.322091 78.88395 104.322091 80.01313 
C 104.322091 81.142309 104.770719 82.225393 105.56917 83.023843 
C 106.36762 83.822294 107.450704 84.270922 108.579883 84.270922 
z
" clip-path="url(#pd19a8801e5)" style="fill: #6d5de3; opacity: 0.74; stroke: #6d5de3; stroke-linejoin: miter"/>
   </g>
   <g id="patch_18">
    <path d="M 108.634411 63.264162 
C 109.763591 63.264162 110.846674 62.815534 111.645125 62.017084 
C 112.443575 61.218633 112.892203 60.13555 112.892203 59.00637 
C 112.892203 57.877191 112.443575 56.794107 111.645125 55.995657 
C 110.846674 55.197206 109.763591 54.748578 108.634411 54.748578 
C 107.505231 54.748578 106.422148 55.197206 105.623697 55.995657 
C 104.825247 56.794107 104.376619 57.877191 104.376619 59.00637 
C 104.376619 60.13555 104.825247 61.218633 105.623697 62.017084 
C 106.422148 62.815534 107.505231 63.264162 108.634411 63.264162 
z
" clip-path="url(#pd19a8801e5)" style="fill: #6d5de3; opacity: 0.74; stroke: #6d5de3; stroke-linejoin: miter"/>
   </g>
   <g id="patch_19">
    <path d="M 98.178253 45.044511 
C 99.307433 45.044511 100.390516 44.595883 101.188967 43.797432 
C 101.987418 42.998982 102.436045 41.915899 102.436045 40.786719 
C 102.436045 39.657539 101.987418 38.574456 101.188967 37.776005 
C 100.390516 36.977555 99.307433 36.528927 98.178253 36.528927 
C 97.049074 36.528927 95.96599 36.977555 95.16754 37.776005 
C 94.369089 38.574456 93.920461 39.657539 93.920461 40.786719 
C 93.920461 41.915899 94.369089 42.998982 95.16754 43.797432 
C 95.96599 44.595883 97.049074 45.044511 98.178253 45.044511 
z
" clip-path="url(#pd19a8801e5)" style="fill: #6d5de3; opacity: 0.74; stroke: #6d5de3; stroke-linejoin: miter"/>
   </g>
   <g id="patch_20">
    <path d="M 80.01313 34.493909 
C 81.142309 34.493909 82.225393 34.045281 83.023843 33.24683 
C 83.822294 32.44838 84.270922 31.365296 84.270922 30.236117 
C 84.270922 29.106937 83.822294 28.023854 83.023843 27.225403 
C 82.225393 26.426953 81.142309 25.978325 80.01313 25.978325 
C 78.88395 25.978325 77.800867 26.426953 77.002416 27.225403 
C 76.203966 28.023854 75.755338 29.106937 75.755338 30.236117 
C 75.755338 31.365296 76.203966 32.44838 77.002416 33.24683 
C 77.800867 34.045281 78.88395 34.493909 80.01313 34.493909 
z
" clip-path="url(#pd19a8801e5)" style="fill: #6d5de3; opacity: 0.74; stroke: #6d5de3; stroke-linejoin: miter"/>
   </g>
   <g id="patch_21">
    <path d="M 16.661087 45.43583 
C 17.437398 45.43583 18.182018 45.127398 18.730953 44.578463 
C 19.279888 44.029528 19.588319 43.284909 19.588319 42.508598 
C 19.588319 41.732287 19.279888 40.987667 18.730953 40.438732 
C 18.182018 39.889797 17.437398 39.581366 16.661087 39.581366 
C 15.884776 39.581366 15.140157 39.889797 14.591222 40.438732 
C 14.042287 40.987667 13.733855 41.732287 13.733855 42.508598 
C 13.733855 43.284909 14.042287 44.029528 14.591222 44.578463 
C 15.140157 45.127398 15.884776 45.43583 16.661087 45.43583 
z
" clip-path="url(#pd19a8801e5)" style="fill: #7c3aed; opacity: 0.42; stroke: #7c3aed; stroke-linejoin: miter"/>
   </g>
   <g id="patch_22">
    <path d="M 10.930333 63.052072 
C 11.706644 63.052072 12.451264 62.743641 13.000198 62.194706 
C 13.549133 61.645771 13.857565 60.901151 13.857565 60.12484 
C 13.857565 59.348529 13.549133 58.60391 13.000198 58.054975 
C 12.451264 57.50604 11.706644 57.197608 10.930333 57.197608 
C 10.154022 57.197608 9.409402 57.50604 8.860467 58.054975 
C 8.311532 58.60391 8.003101 59.348529 8.003101 60.12484 
C 8.003101 60.901151 8.311532 61.645771 8.860467 62.194706 
C 9.409402 62.743641 10.154022 63.052072 10.930333 63.052072 
z
" clip-path="url(#pd19a8801e5)" style="fill: #7c3aed; opacity: 0.42; stroke: #7c3aed; stroke-linejoin: miter"/>
   </g>
   <g id="patch_23">
    <path d="M 10.923779 81.577016 
C 11.70009 81.577016 12.44471 81.268584 12.993645 80.719649 
C 13.54258 80.170714 13.851011 79.426095 13.851011 78.649784 
C 13.851011 77.873473 13.54258 77.128853 12.993645 76.579918 
C 12.44471 76.030983 11.70009 75.722552 10.923779 75.722552 
C 10.147468 75.722552 9.402849 76.030983 8.853914 76.579918 
C 8.304979 77.128853 7.996547 77.873473 7.996547 78.649784 
C 7.996547 79.426095 8.304979 80.170714 8.853914 80.719649 
C 9.402849 81.268584 10.147468 81.577016 10.923779 81.577016 
z
" clip-path="url(#pd19a8801e5)" style="fill: #7c3aed; opacity: 0.42; stroke: #7c3aed; stroke-linejoin: miter"/>
   </g>
   <g id="patch_24">
    <path d="M 16.642069 99.197309 
C 17.41838 99.197309 18.163 98.888877 18.711935 98.339942 
C 19.260869 97.791007 19.569301 97.046388 19.569301 96.270077 
C 19.569301 95.493766 19.260869 94.749146 18.711935 94.200211 
C 18.163 93.651276 17.41838 93.342845 16.642069 93.342845 
C 15.865758 93.342845 15.121138 93.651276 14.572203 94.200211 
C 14.023269 94.749146 13.714837 95.493766 13.714837 96.270077 
C 13.714837 97.046388 14.023269 97.791007 14.572203 98.339942 
C 15.121138 98.888877 15.865758 99.197309 16.642069 99.197309 
z
" clip-path="url(#pd19a8801e5)" style="fill: #7c3aed; opacity: 0.42; stroke: #7c3aed; stroke-linejoin: miter"/>
   </g>
   <g id="patch_25">
    <path d="M 27.525456 114.188154 
C 28.301767 114.188154 29.046387 113.879723 29.595321 113.330788 
C 30.144256 112.781853 30.452688 112.037233 30.452688 111.260922 
C 30.452688 110.484611 30.144256 109.739992 29.595321 109.191057 
C 29.046387 108.642122 28.301767 108.33369 27.525456 108.33369 
C 26.749145 108.33369 26.004525 108.642122 25.45559 109.191057 
C 24.906655 109.739992 24.598224 110.484611 24.598224 111.260922 
C 24.598224 112.037233 24.906655 112.781853 25.45559 113.330788 
C 26.004525 113.879723 26.749145 114.188154 27.525456 114.188154 
z
" clip-path="url(#pd19a8801e5)" style="fill: #7c3aed; opacity: 0.42; stroke: #7c3aed; stroke-linejoin: miter"/>
   </g>
   <g id="patch_26">
    <path d="M 42.508598 125.082145 
C 43.284909 125.082145 44.029528 124.773713 44.578463 124.224778 
C 45.127398 123.675843 45.43583 122.931224 45.43583 122.154913 
C 45.43583 121.378602 45.127398 120.633982 44.578463 120.085047 
C 44.029528 119.536112 43.284909 119.227681 42.508598 119.227681 
C 41.732287 119.227681 40.987667 119.536112 40.438732 120.085047 
C 39.889797 120.633982 39.581366 121.378602 39.581366 122.154913 
C 39.581366 122.931224 39.889797 123.675843 40.438732 124.224778 
C 40.987667 124.773713 41.732287 125.082145 42.508598 125.082145 
z
" clip-path="url(#pd19a8801e5)" style="fill: #7c3aed; opacity: 0.42; stroke: #7c3aed; stroke-linejoin: miter"/>
   </g>
   <g id="patch_27">
    <path d="M 60.12484 130.812899 
C 60.901151 130.812899 61.645771 130.504468 62.194706 129.955533 
C 62.743641 129.406598 63.052072 128.661978 63.052072 127.885667 
C 63.052072 127.109356 62.743641 126.364736 62.194706 125.815802 
C 61.645771 125.266867 60.901151 124.958435 60.12484 124.958435 
C 59.348529 124.958435 58.60391 125.266867 58.054975 125.815802 
C 57.50604 126.364736 57.197608 127.109356 57.197608 127.885667 
C 57.197608 128.661978 57.50604 129.406598 58.054975 129.955533 
C 58.60391 130.504468 59.348529 130.812899 60.12484 130.812899 
z
" clip-path="url(#pd19a8801e5)" style="fill: #7c3aed; opacity: 0.42; stroke: #7c3aed; stroke-linejoin: miter"/>
   </g>
   <g id="patch_28">
    <path d="M 78.649784 130.819453 
C 79.426095 130.819453 80.170714 130.511021 80.719649 129.962086 
C 81.268584 129.413151 81.577016 128.668532 81.577016 127.892221 
C 81.577016 127.11591 81.268584 126.37129 80.719649 125.822355 
C 80.170714 125.27342 79.426095 124.964989 78.649784 124.964989 
C 77.873473 124.964989 77.128853 125.27342 76.579918 125.822355 
C 76.030983 126.37129 75.722552 127.11591 75.722552 127.892221 
C 75.722552 128.668532 76.030983 129.413151 76.579918 129.962086 
C 77.128853 130.511021 77.873473 130.819453 78.649784 130.819453 
z
" clip-path="url(#pd19a8801e5)" style="fill: #7c3aed; opacity: 0.42; stroke: #7c3aed; stroke-linejoin: miter"/>
   </g>
   <g id="patch_29">
    <path d="M 96.270077 125.101163 
C 97.046388 125.101163 97.791007 124.792731 98.339942 124.243797 
C 98.888877 123.694862 99.197309 122.950242 99.197309 122.173931 
C 99.197309 121.39762 98.888877 120.653 98.339942 120.104065 
C 97.791007 119.555131 97.046388 119.246699 96.270077 119.246699 
C 95.493766 119.246699 94.749146 119.555131 94.200211 120.104065 
C 93.651276 120.653 93.342845 121.39762 93.342845 122.173931 
C 93.342845 122.950242 93.651276 123.694862 94.200211 124.243797 
C 94.749146 124.792731 95.493766 125.101163 96.270077 125.101163 
z
" clip-path="url(#pd19a8801e5)" style="fill: #7c3aed; opacity: 0.42; stroke: #7c3aed; stroke-linejoin: miter"/>
   </g>
   <g id="patch_30">
    <path d="M 111.260922 114.217776 
C 112.037233 114.217776 112.781853 113.909345 113.330788 113.36041 
C 113.879723 112.811475 114.188154 112.066855 114.188154 111.290544 
C 114.188154 110.514233 113.879723 109.769613 113.330788 109.220679 
C 112.781853 108.671744 112.037233 108.363312 111.260922 108.363312 
C 110.484611 108.363312 109.739992 108.671744 109.191057 109.220679 
C 108.642122 109.769613 108.33369 110.514233 108.33369 111.290544 
C 108.33369 112.066855 108.642122 112.811475 109.191057 113.36041 
C 109.739992 113.909345 110.484611 114.217776 111.260922 114.217776 
z
" clip-path="url(#pd19a8801e5)" style="fill: #7c3aed; opacity: 0.42; stroke: #7c3aed; stroke-linejoin: miter"/>
   </g>
   <g id="patch_31">
    <path d="M 122.154913 99.234634 
C 122.931224 99.234634 123.675843 98.926203 124.224778 98.377268 
C 124.773713 97.828333 125.082145 97.083713 125.082145 96.307402 
C 125.082145 95.531091 124.773713 94.786472 124.224778 94.237537 
C 123.675843 93.688602 122.931224 93.38017 122.154913 93.38017 
C 121.378602 93.38017 120.633982 93.688602 120.085047 94.237537 
C 119.536112 94.786472 119.227681 95.531091 119.227681 96.307402 
C 119.227681 97.083713 119.536112 97.828333 120.085047 98.377268 
C 120.633982 98.926203 121.378602 99.234634 122.154913 99.234634 
z
" clip-path="url(#pd19a8801e5)" style="fill: #7c3aed; opacity: 0.42; stroke: #7c3aed; stroke-linejoin: miter"/>
   </g>
   <g id="patch_32">
    <path d="M 127.885667 81.618392 
C 128.661978 81.618392 129.406598 81.30996 129.955533 80.761025 
C 130.504468 80.21209 130.812899 79.467471 130.812899 78.69116 
C 130.812899 77.914849 130.504468 77.170229 129.955533 76.621294 
C 129.406598 76.072359 128.661978 75.763928 127.885667 75.763928 
C 127.109356 75.763928 126.364736 76.072359 125.815802 76.621294 
C 125.266867 77.170229 124.958435 77.914849 124.958435 78.69116 
C 124.958435 79.467471 125.266867 80.21209 125.815802 80.761025 
C 126.364736 81.30996 127.109356 81.618392 127.885667 81.618392 
z
" clip-path="url(#pd19a8801e5)" style="fill: #7c3aed; opacity: 0.42; stroke: #7c3aed; stroke-linejoin: miter"/>
   </g>
   <g id="patch_33">
    <path d="M 127.892221 63.093448 
C 128.668532 63.093448 129.413151 62.785017 129.962086 62.236082 
C 130.511021 61.687147 130.819453 60.942527 130.819453 60.166216 
C 130.819453 59.389905 130.511021 58.645286 129.962086 58.096351 
C 129.413151 57.547416 128.668532 57.238984 127.892221 57.238984 
C 127.11591 57.238984 126.37129 57.547416 125.822355 58.096351 
C 125.27342 58.645286 124.964989 59.389905 124.964989 60.166216 
C 124.964989 60.942527 125.27342 61.687147 125.822355 62.236082 
C 126.37129 62.785017 127.11591 63.093448 127.892221 63.093448 
z
" clip-path="url(#pd19a8801e5)" style="fill: #7c3aed; opacity: 0.42; stroke: #7c3aed; stroke-linejoin: miter"/>
   </g>
   <g id="patch_34">
    <path d="M 122.173931 45.473155 
C 122.950242 45.473155 123.694862 45.164724 124.243797 44.615789 
C 124.792731 44.066854 125.101163 43.322234 125.101163 42.545923 
C 125.101163 41.769612 124.792731 41.024993 124.243797 40.476058 
C 123.694862 39.927123 122.950242 39.618691 122.173931 39.618691 
C 121.39762 39.618691 120.653 39.927123 120.104065 40.476058 
C 119.555131 41.024993 119.246699 41.769612 119.246699 42.545923 
C 119.246699 43.322234 119.555131 44.066854 120.104065 44.615789 
C 120.653 45.164724 121.39762 45.473155 122.173931 45.473155 
z
" clip-path="url(#pd19a8801e5)" style="fill: #7c3aed; opacity: 0.42; stroke: #7c3aed; stroke-linejoin: miter"/>
   </g>
   <g id="patch_35">
    <path d="M 111.290544 30.48231 
C 112.066855 30.48231 112.811475 30.173878 113.36041 29.624943 
C 113.909345 29.076008 114.217776 28.331389 114.217776 27.555078 
C 114.217776 26.778767 113.909345 26.034147 113.36041 25.485212 
C 112.811475 24.936277 112.066855 24.627846 111.290544 24.627846 
C 110.514233 24.627846 109.769613 24.936277 109.220679 25.485212 
C 108.671744 26.034147 108.363312 26.778767 108.363312 27.555078 
C 108.363312 28.331389 108.671744 29.076008 109.220679 29.624943 
C 109.769613 30.173878 110.514233 30.48231 111.290544 30.48231 
z
" clip-path="url(#pd19a8801e5)" style="fill: #7c3aed; opacity: 0.42; stroke: #7c3aed; stroke-linejoin: miter"/>
   </g>
   <g id="patch_36">
    <path d="M 96.307402 19.588319 
C 97.083713 19.588319 97.828333 19.279888 98.377268 18.730953 
C 98.926203 18.182018 99.234634 17.437398 99.234634 16.661087 
C 99.234634 15.884776 98.926203 15.140157 98.377268 14.591222 
C 97.828333 14.042287 97.083713 13.733855 96.307402 13.733855 
C 95.531091 13.733855 94.786472 14.042287 94.237537 14.591222 
C 93.688602 15.140157 93.38017 15.884776 93.38017 16.661087 
C 93.38017 17.437398 93.688602 18.182018 94.237537 18.730953 
C 94.786472 19.279888 95.531091 19.588319 96.307402 19.588319 
z
" clip-path="url(#pd19a8801e5)" style="fill: #7c3aed; opacity: 0.42; stroke: #7c3aed; stroke-linejoin: miter"/>
   </g>
   <g id="patch_37">
    <path d="M 78.69116 13.857565 
C 79.467471 13.857565 80.21209 13.549133 80.761025 13.000198 
C 81.30996 12.451264 81.618392 11.706644 81.618392 10.930333 
C 81.618392 10.154022 81.30996 9.409402 80.761025 8.860467 
C 80.21209 8.311532 79.467471 8.003101 78.69116 8.003101 
C 77.914849 8.003101 77.170229 8.311532 76.621294 8.860467 
C 76.072359 9.409402 75.763928 10.154022 75.763928 10.930333 
C 75.763928 11.706644 76.072359 12.451264 76.621294 13.000198 
C 77.170229 13.549133 77.914849 13.857565 78.69116 13.857565 
z
" clip-path="url(#pd19a8801e5)" style="fill: #7c3aed; opacity: 0.42; stroke: #7c3aed; stroke-linejoin: miter"/>
   </g>
   <g id="patch_38">
    <path d="M 60.166216 13.851011 
C 60.942527 13.851011 61.687147 13.54258 62.236082 12.993645 
C 62.785017 12.44471 63.093448 11.70009 63.093448 10.923779 
C 63.093448 10.147468 62.785017 9.402849 62.236082 8.853914 
C 61.687147 8.304979 60.942527 7.996547 60.166216 7.996547 
C 59.389905 7.996547 58.645286 8.304979 58.096351 8.853914 
C 57.547416 9.402849 57.238984 10.147468 57.238984 10.923779 
C 57.238984 11.70009 57.547416 12.44471 58.096351 12.993645 
C 58.645286 13.54258 59.389905 13.851011 60.166216 13.851011 
z
" clip-path="url(#pd19a8801e5)" style="fill: #7c3aed; opacity: 0.42; stroke: #7c3aed; stroke-linejoin: miter"/>
   </g>
   <g id="patch_39">
    <path d="M 42.545923 19.569301 
C 43.322234 19.569301 44.066854 19.260869 44.615789 18.711935 
C 45.164724 18.163 45.473155 17.41838 45.473155 16.642069 
C 45.473155 15.865758 45.164724 15.121138 44.615789 14.572203 
C 44.066854 14.023269 43.322234 13.714837 42.545923 13.714837 
C 41.769612 13.714837 41.024993 14.023269 40.476058 14.572203 
C 39.927123 15.121138 39.618691 15.865758 39.618691 16.642069 
C 39.618691 17.41838 39.927123 18.163 40.476058 18.711935 
C 41.024993 19.260869 41.769612 19.569301 42.545923 19.569301 
z
" clip-path="url(#pd19a8801e5)" style="fill: #7c3aed; opacity: 0.42; stroke: #7c3aed; stroke-linejoin: miter"/>
   </g>
   <g id="patch_40">
    <path d="M 27.555078 30.452688 
C 28.331389 30.452688 29.076008 30.144256 29.624943 29.595321 
C 30.173878 29.046387 30.48231 28.301767 30.48231 27.525456 
C 30.48231 26.749145 30.173878 26.004525 29.624943 25.45559 
C 29.076008 24.906655 28.331389 24.598224 27.555078 24.598224 
C 26.778767 24.598224 26.034147 24.906655 25.485212 25.45559 
C 24.936277 26.004525 24.627846 26.749145 24.627846 27.525456 
C 24.627846 28.301767 24.936277 29.046387 25.485212 29.595321 
C 26.034147 30.144256 26.778767 30.452688 27.555078 30.452688 
z
" clip-path="url(#pd19a8801e5)" style="fill: #7c3aed; opacity: 0.42; stroke: #7c3aed; stroke-linejoin: miter"/>
   </g>
   <g id="patch_41">
    <path d="M 69.408 80.318592 
C 72.301523 80.318592 75.076924 79.168983 77.122954 77.122954 
C 79.168983 75.076924 80.318592 72.301523 80.318592 69.408 
C 80.318592 66.514477 79.168983 63.739076 77.122954 61.693046 
C 75.076924 59.647017 72.301523 58.497408 69.408 58.497408 
C 66.514477 58.497408 63.739076 59.647017 61.693046 61.693046 
C 59.647017 63.739076 58.497408 66.514477 58.497408 69.408 
C 58.497408 72.301523 59.647017 75.076924 61.693046 77.122954 
C 63.739076 79.168983 66.514477 80.318592 69.408 80.318592 
z
" clip-path="url(#pd19a8801e5)" style="fill: #f59e0b; stroke: #f59e0b; stroke-linejoin: miter"/>
   </g>
   <g id="patch_42">
    <path d="M 69.408 85.640832 
C 73.712997 85.640832 77.842253 83.930438 80.886346 80.886346 
C 83.930438 77.842253 85.640832 73.712997 85.640832 69.408 
C 85.640832 65.103003 83.930438 60.973747 80.886346 57.929654 
C 77.842253 54.885562 73.712997 53.175168 69.408 53.175168 
C 65.103003 53.175168 60.973747 54.885562 57.929654 57.929654 
C 54.885562 60.973747 53.175168 65.103003 53.175168 69.408 
C 53.175168 73.712997 54.885562 77.842253 57.929654 80.886346 
C 60.973747 83.930438 65.103003 85.640832 69.408 85.640832 
L 69.408 85.640832 
z
" clip-path="url(#pd19a8801e5)" style="fill: none; opacity: 0.55; stroke: #f59e0b; stroke-width: 1.6; stroke-linejoin: miter"/>
   </g>
   <g id="patch_43">
    <path d="M 126.76838 108.098065 
C 134.477121 96.669386 138.59712 83.193478 138.59712 69.408 
C 138.59712 55.622522 134.477121 42.146614 126.76838 30.717935 
" clip-path="url(#pd19a8801e5)" style="fill: none; opacity: 0.95; stroke: #f59e0b; stroke-width: 3.4; stroke-linejoin: miter; stroke-linecap: round"/>
   </g>
  </g>
 </g>
 <defs>
  <clipPath id="pd19a8801e5">
   <rect x="2.88" y="2.88" width="133.056" height="133.056"/>
  </clipPath>
 </defs>
</svg>
